<svg data-v-01bac759="" width="20px" height="20px" viewBox="0 0 20 20" fill="none" xmlns="http://www.w3.org/2000/svg" class="h2d-4b873fd7" font-family="Inter, sans-serif"><path opacity="0.4" d="M3.33203 4.16797C3.33203 2.78726 4.45132 1.66797 5.83203 1.66797H14.1654C15.5461 1.66797 16.6654 2.78726 16.6654 4.16797V15.8346C16.6654 17.2153 15.5461 18.3346 14.1654 18.3346H5.83203C4.45132 18.3346 3.33203 17.2153 3.33203 15.8346V4.16797Z" fill="rgb(0, 177, 53)"></path><path d="M8.33203 6.35003C8.33203 5.73055 8.98396 5.32764 9.53804 5.60468L11.8413 6.75632C12.4555 7.06342 12.4555 7.93992 11.8413 8.24703L9.53804 9.39867C8.98396 9.67571 8.33203 9.2728 8.33203 8.65331V6.35003Z" fill="rgb(0, 177, 53)"></path><path d="M3.33203 15.832C3.33203 14.4513 4.45132 13.332 5.83203 13.332H16.6654V15.832C16.6654 17.2127 15.5461 18.332 14.1654 18.332H5.83203C4.45132 18.332 3.33203 17.2127 3.33203 15.832Z" fill="rgb(0, 177, 53)"></path></svg>