<svg data-v-01bac759="" width="20px" height="20px" viewBox="0 0 20 20" fill="none" xmlns="http://www.w3.org/2000/svg" class="h2d-da997acd" font-family="Inter, sans-serif"><g clip-path="url(#clip0_13004_19330)"><mask id="mask0_13004_19330" style="mask-type:luminance;" maskUnits="userSpaceOnUse" x="0" y="0" width="20" height="20"><path d="M20 0H0V20H20V0Z" fill="rgb(255, 255, 255)"></path></mask><g mask="url(#mask0_13004_19330)"><path opacity="0.4" d="M9.99845 18.3368C13.9887 18.3368 17.2235 15.102 17.2235 11.1118C17.2235 7.12146 13.9887 3.88672 9.99845 3.88672C6.00818 3.88672 2.77344 7.12146 2.77344 11.1118C2.77344 15.102 6.00818 18.3368 9.99845 18.3368Z" fill="rgb(0, 113, 249)"></path><path d="M10 11.4596C9.65833 11.4596 9.375 11.1763 9.375 10.8346V6.66797C9.375 6.3263 9.65833 6.04297 10 6.04297C10.3417 6.04297 10.625 6.3263 10.625 6.66797V10.8346C10.625 11.1763 10.3417 11.4596 10 11.4596Z" fill="rgb(0, 113, 249)"></path><path d="M12.4049 2.8763H7.58828C7.25495 2.8763 6.98828 2.60964 6.98828 2.2763C6.98828 1.94297 7.25495 1.66797 7.58828 1.66797H12.4049C12.7382 1.66797 13.0049 1.93464 13.0049 2.26797C13.0049 2.6013 12.7382 2.8763 12.4049 2.8763Z" fill="rgb(0, 113, 249)"></path></g></g><defs><clipPath id="clip0_13004_19330"><rect width="20" height="20" fill="rgb(255, 255, 255)"></rect></clipPath></defs></svg>