<svg width="20px" height="20px" viewBox="0 0 20 20" fill="none" xmlns="http://www.w3.org/2000/svg" class="h2d-b9d9fd78" font-family="Inter, sans-serif"><g clip-path="url(#clip0_2143_2395)"><path d="M18 10C18 14.4375 14.4062 18 10 18C5.5625 18 2 14.4375 2 10C2 5.59375 5.5625 2 10 2C14.4062 2 18 5.59375 18 10ZM7.875 6.625C7.625 6.75 7.5 7 7.5 7.25V12.75C7.5 13.0312 7.625 13.2812 7.875 13.4062C8.09375 13.5625 8.40625 13.5312 8.625 13.4062L13.125 10.6562C13.3438 10.5 13.5 10.2812 13.5 10C13.5 9.75 13.3438 9.5 13.125 9.375L8.625 6.625C8.40625 6.46875 8.09375 6.46875 7.875 6.59375V6.625Z" fill="rgb(0, 113, 249)"></path></g><defs><clipPath id="clip0_2143_2395"><rect width="20" height="20" fill="rgb(255, 255, 255)"></rect></clipPath></defs></svg>