<svg data-v-69db7303="" xmlns="http://www.w3.org/2000/svg" width="20px" height="20px" viewBox="0 0 20 20" fill="none" class="h2d-4ea6f8a5" color="rgb(107, 114, 128)" font-family="Inter, sans-serif"><path data-v-69db7303="" d="M8.27871 2.36249C8.98281 0.879173 11.0172 0.879171 11.7213 2.36248L12.9382 4.92603C13.2178 5.51505 13.7582 5.92332 14.3834 6.01777L17.1044 6.42886C18.6788 6.66672 19.3075 8.67835 18.1682 9.83295L16.1993 11.8284C15.7469 12.2869 15.5405 12.9475 15.6473 13.5949L16.1121 16.4125C16.381 18.0428 14.7352 19.2861 13.327 18.5163L10.8932 17.186C10.334 16.8804 9.66597 16.8804 9.10678 17.186L6.67304 18.5163C5.26484 19.2861 3.619 18.0428 3.88794 16.4125L4.35274 13.5949C4.45954 12.9475 4.2531 12.2869 3.8007 11.8284L1.83177 9.83295C0.692508 8.67835 1.32116 6.66672 2.89558 6.42886L5.61658 6.01777C6.24178 5.92332 6.78225 5.51506 7.06184 4.92603L8.27871 2.36249Z" fill="url(#paint0_linear_25253_1967)"></path><defs data-v-69db7303=""><linearGradient data-v-69db7303="" id="paint0_linear_25253_1967" x1="10" y1="1.25" x2="10" y2="18.75" gradientUnits="userSpaceOnUse"><stop data-v-69db7303="" stop-color="rgb(255, 210, 93)"></stop><stop data-v-69db7303="" offset="1" stop-color="rgb(255, 159, 0)"></stop></linearGradient></defs></svg>