<svg data-v-c20e1cc8="" width="20px" height="20px" viewBox="0 0 20 20" fill="none" xmlns="http://www.w3.org/2000/svg" class="h2d-70a1bdcd" color="rgb(107, 114, 128)" font-family="Inter, sans-serif" font-size="14px" font-weight="500"><path d="M4.16623 4.44448C4.36067 4.44448 4.49031 4.31484 4.49031 4.1204V2.82408C4.49031 2.62963 4.36067 2.5 4.16623 2.5H2.22175C1.67081 2.5 1.24951 3.01853 1.24951 3.63428V6.93989C1.24951 8.43065 2.25416 9.62975 3.51807 9.62975H4.16623C4.36067 9.62975 4.49031 9.50012 4.49031 9.30567V8.00935C4.49031 7.8149 4.36067 7.68527 4.16623 7.68527H3.84215C3.55048 7.68527 3.19399 7.23156 3.19399 6.55099V4.44448H4.16623Z" fill="rgb(255, 184, 0)"></path><path d="M17.7773 2.5H15.8329C15.6384 2.5 15.5088 2.62963 15.5088 2.82408V4.1204C15.5088 4.31485 15.6384 4.44448 15.8329 4.44448H16.8051V6.55099C16.8051 7.23156 16.4486 7.68527 16.1569 7.68527H15.8329C15.6384 7.68527 15.5088 7.8149 15.5088 8.00935V9.30567C15.5088 9.50012 15.6384 9.62975 15.8329 9.62975H16.481C17.7449 9.62975 18.7496 8.43066 18.7496 6.93989V3.63428C18.7496 3.01853 18.3283 2.5 17.7773 2.5Z" fill="rgb(255, 184, 0)"></path><path d="M11.6554 12.8333C11.614 12.625 11.4484 12.5 11.2415 12.5H8.75765C8.55067 12.5 8.38508 12.625 8.34369 12.8333L7.51575 17.0001C7.47436 17.1251 7.51575 17.2501 7.59855 17.3334C7.68134 17.4167 7.80553 17.5001 7.92972 17.5001H12.0694C12.1936 17.5001 12.3178 17.4584 12.4006 17.3334C12.4834 17.2501 12.5248 17.1251 12.4834 17.0001L11.6554 12.8333Z" fill="rgb(255, 184, 0)"></path><path d="M15.9208 1.25H4.07846C3.88109 1.25 3.74951 1.39286 3.74951 1.60715V9.10727C3.74951 11.6787 5.65744 13.7502 8.0259 13.7502H11.9733C14.3418 13.7502 16.2497 11.6787 16.2497 9.10727V1.60715C16.2497 1.39286 16.1181 1.25 15.9208 1.25Z" fill="rgb(255, 220, 82)"></path><path d="M9.50775 5.31786C9.70892 4.89405 10.2902 4.89405 10.4914 5.31786L10.839 6.05031C10.9189 6.21861 11.0733 6.33526 11.252 6.36224L12.0294 6.4797C12.4793 6.54766 12.6589 7.12242 12.3334 7.45231L11.7708 8.02245C11.6416 8.15345 11.5826 8.34219 11.6131 8.52716L11.7459 9.33221C11.8227 9.79802 11.3525 10.1532 10.9501 9.93332L10.2548 9.55323C10.095 9.46589 9.90412 9.46589 9.74434 9.55323L9.04898 9.93332C8.64663 10.1532 8.17638 9.79802 8.25322 9.33221L8.38602 8.52716C8.41654 8.34219 8.35755 8.15345 8.22829 8.02245L7.66573 7.45231C7.34023 7.12242 7.51984 6.54766 7.96968 6.4797L8.74713 6.36224C8.92576 6.33526 9.08018 6.21861 9.16007 6.05031L9.50775 5.31786Z" fill="rgb(255, 255, 255)"></path><path d="M13.5291 16.2505H6.47012C5.64658 16.2505 4.99951 16.7505 4.99951 17.3869V18.5233C4.99951 18.6596 5.11716 18.7505 5.29363 18.7505H14.7056C14.882 18.7505 14.9997 18.6596 14.9997 18.5233V17.3869C14.9997 16.7505 14.3526 16.2505 13.5291 16.2505Z" fill="rgb(255, 220, 82)"></path></svg>