<svg width="16px" height="16px" viewBox="0 0 16 16" fill="none" xmlns="http://www.w3.org/2000/svg" class="h2d-24556352" font-family="Inter, sans-serif"><g clip-path="url(#clip0_1744_7936)"><path d="M9.09375 2.69141L13.9062 7.28516C14.043 7.42188 14.125 7.58594 14.125 7.77734C14.125 7.94141 14.043 8.10547 13.9062 8.24219L9.09375 12.8359C8.84766 13.082 8.41016 13.082 8.16406 12.8086C7.91797 12.5625 7.91797 12.125 8.19141 11.8789L11.8281 8.43359H2.53125C2.14844 8.43359 1.875 8.13281 1.875 7.77734C1.875 7.39453 2.14844 7.12109 2.53125 7.12109H11.8281L8.19141 3.64844C7.91797 3.40234 7.91797 2.96484 8.16406 2.71875C8.41016 2.44531 8.82031 2.44531 9.09375 2.69141Z" fill="rgb(255, 255, 255)"></path></g><defs><clipPath id="clip0_1744_7936"><rect width="16" height="16" fill="rgb(255, 255, 255)"></rect></clipPath></defs></svg>