<svg width="20px" height="20px" viewBox="0 0 20 20" fill="none" xmlns="http://www.w3.org/2000/svg" class="h2d-d5211b25" font-family="Inter, sans-serif"><path d="M4.16577 4.44448C4.36022 4.44448 4.48985 4.31484 4.48985 4.1204V2.82408C4.48985 2.62963 4.36022 2.5 4.16577 2.5H2.22129C1.67036 2.5 1.24905 3.01853 1.24905 3.63428V6.93989C1.24905 8.43065 2.2537 9.62975 3.51761 9.62975H4.16577C4.36022 9.62975 4.48985 9.50012 4.48985 9.30567V8.00935C4.48985 7.8149 4.36022 7.68527 4.16577 7.68527H3.84169C3.55002 7.68527 3.19353 7.23156 3.19353 6.55099V4.44448H4.16577Z" fill="rgb(209, 213, 219)"></path><path d="M17.777 2.5H15.8326C15.6381 2.5 15.5085 2.62963 15.5085 2.82408V4.1204C15.5085 4.31485 15.6381 4.44448 15.8326 4.44448H16.8048V6.55099C16.8048 7.23156 16.4483 7.68527 16.1566 7.68527H15.8326C15.6381 7.68527 15.5085 7.8149 15.5085 8.00935V9.30567C15.5085 9.50012 15.6381 9.62975 15.8326 9.62975H16.4807C17.7446 9.62975 18.7493 8.43066 18.7493 6.93989V3.63428C18.7493 3.01853 18.328 2.5 17.777 2.5Z" fill="rgb(209, 213, 219)"></path><path d="M11.655 12.8335C11.6136 12.6251 11.448 12.5001 11.241 12.5001H8.75719C8.55021 12.5001 8.38462 12.6251 8.34323 12.8335L7.51529 17.0002C7.4739 17.1252 7.51529 17.2502 7.59809 17.3335C7.68088 17.4169 7.80507 17.5002 7.92926 17.5002H12.0689C12.1931 17.5002 12.3173 17.4585 12.4001 17.3335C12.4829 17.2502 12.5243 17.1252 12.4829 17.0002L11.655 12.8335Z" fill="rgb(209, 213, 219)"></path><path fill-rule="evenodd" clip-rule="evenodd" d="M4.07801 1.25H15.9203C16.1177 1.25 16.2493 1.39286 16.2493 1.60715V9.10727C16.2493 11.6787 14.3413 13.7502 11.9729 13.7502H8.02544C5.65698 13.7502 3.74905 11.6787 3.74905 9.10727V1.60715C3.74905 1.39286 3.88064 1.25 4.07801 1.25ZM10.4909 5.31791C10.2897 4.8941 9.70842 4.8941 9.50725 5.31791L9.15957 6.05036C9.07968 6.21866 8.92526 6.33531 8.74663 6.36229L7.96918 6.47975C7.51934 6.54771 7.33973 7.12247 7.66523 7.45236L8.22779 8.0225C8.35705 8.1535 8.41604 8.34224 8.38552 8.52722L8.25272 9.33226C8.17588 9.79807 8.64613 10.1533 9.04848 9.93337L9.74384 9.55328C9.90362 9.46594 10.0945 9.46594 10.2543 9.55328L10.9496 9.93337C11.352 10.1533 11.8222 9.79807 11.7454 9.33226L11.6126 8.52722C11.5821 8.34224 11.6411 8.1535 11.7703 8.0225L12.3329 7.45236C12.6584 7.12247 12.4788 6.54771 12.0289 6.47975L11.2515 6.36229C11.0728 6.33531 10.9184 6.21866 10.8385 6.05036L10.4909 5.31791Z" fill="rgb(229, 231, 235)"></path><path d="M13.5286 16.2502H6.46967C5.64612 16.2502 4.99905 16.7503 4.99905 17.3866V18.523C4.99905 18.6594 5.1167 18.7503 5.29318 18.7503H14.7051C14.8816 18.7503 14.9992 18.6594 14.9992 18.523V17.3866C14.9992 16.7503 14.3522 16.2502 13.5286 16.2502Z" fill="rgb(229, 231, 235)"></path></svg>