<svg width="20px" height="20px" viewBox="0 0 20 20" fill="none" xmlns="http://www.w3.org/2000/svg" data-v-3b6bda54="" class="h2d-5f2d96d0" font-family="Inter, sans-serif"><g clip-path="url(#clip0_13066_20216)" data-v-3b6bda54=""><path d="M4.74159 18.1121L3.77492 19.2988C3.60695 19.5048 3.36403 19.6356 3.09961 19.6625C2.83518 19.6894 2.57091 19.6101 2.36492 19.4421C2.15894 19.2742 2.02812 19.0312 2.00124 18.7668C1.97435 18.5024 2.05362 18.2381 2.22159 18.0321L3.18159 16.8555L4.33159 16.9988L4.74159 18.1121Z" fill="rgb(163, 196, 237)" data-v-3b6bda54=""></path><path d="M16.8178 16.8555L17.7778 18.0321C17.9458 18.2381 18.025 18.5024 17.9982 18.7668C17.9713 19.0312 17.8405 19.2742 17.6345 19.4421C17.4285 19.6101 17.1642 19.6894 16.8998 19.6625C16.6354 19.6356 16.3924 19.5048 16.2245 19.2988L15.2578 18.1121L15.6678 16.9988L16.8178 16.8555Z" fill="rgb(163, 196, 237)" data-v-3b6bda54=""></path><path d="M18.4552 5.31555C19.5842 7.35418 19.9387 9.73202 19.4535 12.0113C18.9684 14.2906 17.6761 16.3179 15.8147 17.72C13.9534 19.1221 11.6481 19.8046 9.32345 19.6418C6.99878 19.479 4.81116 18.4819 3.16335 16.8341C1.51553 15.1863 0.518444 12.9986 0.355658 10.674C0.192871 8.34931 0.875341 6.04408 2.27742 4.18269C3.6795 2.3213 5.70681 1.02907 7.98611 0.543883C10.2654 0.0587009 12.6433 0.413236 14.6819 1.54222L18.4552 5.31555Z" fill="rgb(20, 121, 244)" data-v-3b6bda54=""></path><path d="M15.3964 5.54668C16.5427 6.93542 17.1104 8.71215 16.9818 10.5083C16.8532 12.3044 16.038 13.9821 14.7055 15.1933C13.3729 16.4045 11.6253 17.0563 9.82505 17.0134C8.02482 16.9704 6.31019 16.2362 5.03688 14.9628C3.76356 13.6895 3.02928 11.9749 2.98637 10.1747C2.94345 8.37444 3.5952 6.62678 4.8064 5.29424C6.0176 3.9617 7.69529 3.14656 9.49144 3.01792C11.2876 2.88928 13.0643 3.45701 14.453 4.60334L15.3964 5.54668Z" fill="rgb(255, 255, 255)" data-v-3b6bda54=""></path><path d="M13.4971 7.44803C14.1425 8.33111 14.431 9.42526 14.3048 10.5118C14.1785 11.5983 13.6469 12.5972 12.8162 13.3088C11.9854 14.0204 10.9168 14.3922 9.82373 14.3501C8.7307 14.3079 7.69384 13.8548 6.92038 13.0814C6.14692 12.3079 5.69383 11.2711 5.65167 10.178C5.60951 9.085 5.98138 8.01632 6.69297 7.18558C7.40455 6.35483 8.40343 5.82322 9.48996 5.69699C10.5765 5.57076 11.6706 5.85921 12.5537 6.50469L13.4971 7.44803Z" fill="rgb(20, 121, 244)" data-v-3b6bda54=""></path><path d="M11.6554 9.84203C11.6621 9.89398 11.6655 9.94632 11.6654 9.9987C11.6654 10.3283 11.5676 10.6506 11.3845 10.9247C11.2013 11.1987 10.941 11.4124 10.6365 11.5385C10.332 11.6646 9.99685 11.6977 9.67355 11.6333C9.35025 11.569 9.05328 11.4103 8.82019 11.1772C8.5871 10.9441 8.42837 10.6472 8.36406 10.3239C8.29975 10.0005 8.33275 9.66544 8.4589 9.36089C8.58505 9.05635 8.79867 8.79605 9.07275 8.61292C9.34683 8.42978 9.66906 8.33203 9.9987 8.33203C10.0511 8.33194 10.1034 8.33528 10.1554 8.34203L11.6554 9.84203Z" fill="rgb(255, 255, 255)" data-v-3b6bda54=""></path><path d="M18.5294 2.41289L19.4721 3.35556C19.597 3.48057 19.6673 3.65011 19.6673 3.82689C19.6673 4.00367 19.597 4.1732 19.4721 4.29822L18.3494 5.42122C18.2619 5.50872 18.1517 5.57012 18.0313 5.59856C17.9108 5.62699 17.7848 5.62134 17.6674 5.58222L15.9371 5.00556L14.9941 4.06256L14.4171 2.33189C14.3779 2.21442 14.3722 2.08837 14.4006 1.96785C14.4291 1.84733 14.4905 1.73712 14.5781 1.64956L15.7007 0.527222C15.8257 0.402241 15.9953 0.332031 16.1721 0.332031C16.3488 0.332031 16.5184 0.402241 16.6434 0.527222L17.5861 1.46989L18.5294 2.41289Z" fill="rgb(247, 189, 6)" data-v-3b6bda54=""></path><path d="M10.5273 8.53016L17.819 1.23849C17.8809 1.17651 17.9545 1.12734 18.0354 1.09379C18.1163 1.06024 18.2031 1.04297 18.2907 1.04297C18.3783 1.04297 18.465 1.06024 18.546 1.09379C18.6269 1.12734 18.7004 1.17651 18.7623 1.23849C18.8246 1.29974 18.8738 1.37295 18.9071 1.45373C18.9403 1.5345 18.9568 1.62116 18.9557 1.70849C18.9572 1.79637 18.9408 1.88363 18.9076 1.96499C18.8743 2.04635 18.8249 2.12012 18.7623 2.18183L11.4707 9.47349L10.5273 8.53016Z" fill="rgb(218, 235, 255)" data-v-3b6bda54=""></path><path d="M12.5698 9.57883L10.0344 10.3215C9.98519 10.3363 9.93287 10.3376 9.883 10.325C9.83314 10.3125 9.7876 10.2867 9.75125 10.2503C9.71489 10.214 9.68907 10.1684 9.67654 10.1186C9.66401 10.0687 9.66524 10.0164 9.68008 9.96716L10.4228 7.43183C10.4391 7.37666 10.4717 7.32768 10.5162 7.29127C10.5607 7.25486 10.6152 7.2327 10.6725 7.22766C10.7299 7.22263 10.7874 7.23496 10.8376 7.26305C10.8878 7.29113 10.9284 7.33368 10.9541 7.38516L11.4678 8.40749C11.495 8.46278 11.5398 8.50754 11.5951 8.53483L12.6174 9.04749C12.6689 9.07328 12.7114 9.11396 12.7394 9.16424C12.7674 9.21452 12.7796 9.27206 12.7745 9.32939C12.7694 9.38671 12.7471 9.44116 12.7106 9.48565C12.674 9.53014 12.625 9.56261 12.5698 9.57883Z" fill="rgb(206, 204, 219)" data-v-3b6bda54=""></path></g><defs data-v-3b6bda54=""><clipPath id="clip0_13066_20216" data-v-3b6bda54=""><rect width="20" height="20" fill="rgb(255, 255, 255)" data-v-3b6bda54=""></rect></clipPath></defs></svg>