<svg data-v-ddba71d8="" width="24px" height="24px" viewBox="0 0 18 21" fill="none" xmlns="http://www.w3.org/2000/svg" class="h2d-6af5a7bb" font-family="Inter, sans-serif"><path data-v-ddba71d8="" d="M5.875 6.125V8H12.125V6.125C12.125 4.40625 10.7188 3 9 3C7.24219 3 5.875 4.40625 5.875 6.125ZM3.375 8V6.125C3.375 3.03906 5.875 0.5 9 0.5C12.0859 0.5 14.625 3.03906 14.625 6.125V8H15.25C16.6172 8 17.75 9.13281 17.75 10.5V18C17.75 19.4062 16.6172 20.5 15.25 20.5H2.75C1.34375 20.5 0.25 19.4062 0.25 18V10.5C0.25 9.13281 1.34375 8 2.75 8H3.375Z" fill="rgb(156, 163, 175)"></path></svg>