<svg xmlns="http://www.w3.org/2000/svg" width="20px" height="24px" viewBox="0 0 20 24" fill="none" class="h2d-2185b2b" font-family="Inter, sans-serif"><g clip-path="url(#clip0_8306_8352)"><path fill-rule="evenodd" clip-rule="evenodd" d="M20.0002 14.1687C20.051 19.5349 15.3354 24.1326 9.89351 23.9975C4.31708 23.9649 -0.175051 19.3021 0.00524382 13.8458C0.104279 10.6196 1.74978 7.38594 3.77365 4.84052C4.81479 3.53653 6.01083 2.35517 7.27543 1.39157C7.97122 0.860961 8.78127 0.773361 9.11901 1.70443C9.47452 2.68555 9.64465 3.70672 10.117 4.6478C10.4826 5.38865 11.3079 6.77774 12.4278 6.62507C12.8163 6.59003 13.0322 6.18206 13.2353 5.81163C13.6492 5.14837 13.8244 3.83937 14.5228 3.5165C14.7234 3.44392 14.9951 3.57908 15.1881 3.72674C15.5639 4.01708 15.8737 4.37999 16.1911 4.7329C18.408 7.2658 20.0052 10.8749 20.0027 14.1237V14.1712L20.0002 14.1687Z" fill="url(#paint0_radial_8306_8352)"></path><path fill-rule="evenodd" clip-rule="evenodd" d="M20.0002 13.1726C20.051 18.5388 15.3354 23.1365 9.89351 23.0014C4.31708 22.9688 -0.175051 18.3085 0.00524382 12.8497C0.104279 9.62355 1.74978 6.38984 3.77365 3.84443C4.81479 2.54043 6.01083 1.35908 7.27543 0.395475C7.97122 -0.135133 8.78127 -0.222733 9.11901 0.708334C9.47452 1.68946 9.64465 2.71063 10.117 3.65171C10.4826 4.39256 11.3079 5.78165 12.4278 5.62897C12.8163 5.59393 13.0322 5.18596 13.2353 4.81554C13.6492 4.15228 13.8244 2.84328 14.5228 2.52041C14.7234 2.44783 14.9951 2.58298 15.1881 2.73065C15.5639 3.02098 15.8737 3.3839 16.1911 3.7368C18.408 6.26971 20.0052 9.87884 20.0027 13.1276V13.1751L20.0002 13.1726Z" fill="url(#paint1_radial_8306_8352)"></path><path fill-rule="evenodd" clip-rule="evenodd" d="M20.0002 14.1687C20.051 19.5349 15.3354 24.1326 9.89351 23.9975C4.31708 23.9649 -0.175051 19.3021 0.00524382 13.8458C0.104279 10.6196 1.74978 7.38594 3.77365 4.84052C4.81479 3.53653 6.01083 2.35517 7.27543 1.39157C7.97122 0.860961 8.78127 0.773361 9.11901 1.70443C9.47452 2.68555 9.64465 3.70672 10.117 4.6478C10.4826 5.38865 11.3079 6.77774 12.4278 6.62507C12.8163 6.59003 13.0322 6.18206 13.2353 5.81163C13.6492 5.14837 13.8244 3.83937 14.5228 3.5165C14.7234 3.44392 14.9951 3.57908 15.1881 3.72674C15.5639 4.01708 15.8737 4.37999 16.1911 4.7329C18.408 7.2658 20.0052 10.8749 20.0027 14.1237V14.1712L20.0002 14.1687Z" fill="url(#paint2_radial_8306_8352)"></path><path d="M15.0231 17.2824C14.7742 17.8831 14.2384 18.3186 13.5934 18.4437C13.0399 18.5489 12.466 18.4162 12.019 18.0733L11.9124 17.9932V18.1134C11.92 18.2035 11.92 18.3011 11.9124 18.3937C11.9251 19.4599 11.0592 20.3309 9.98247 20.3409C8.90325 20.3534 8.01955 19.4999 8.00685 18.4387C8.00685 18.3361 8.01193 18.226 8.02971 18.1234V17.9982L7.92559 18.0783C7.47866 18.4212 6.90223 18.5589 6.35119 18.4512C5.45987 18.251 4.82757 17.4651 4.83265 16.5591C4.83265 15.7757 5.31513 15.0649 6.05408 14.772L6.15566 14.7345H6.12772L6.02615 14.6969C5.2872 14.4041 4.80472 13.6933 4.80472 12.9099C4.79964 12.0039 5.43194 11.218 6.32326 11.0177C6.8743 10.9101 7.45073 11.0478 7.89766 11.3907L8.00177 11.4708V11.3456C7.984 11.243 7.97892 11.1329 7.97892 11.0302C7.99161 9.96903 8.87531 9.11555 9.95454 9.12807C11.0312 9.13808 11.8972 10.0091 11.8845 11.0753C11.8921 11.1679 11.8921 11.2655 11.8845 11.3556V11.4758L11.9911 11.3957C12.438 11.0528 13.0119 10.9201 13.5655 11.0252C14.2105 11.1504 14.7463 11.5859 14.9952 12.1866C15.4015 13.1727 14.919 14.2965 13.921 14.6969L13.8169 14.7345H13.8448L13.949 14.772C14.9469 15.1725 15.4294 16.2963 15.0231 17.2824Z" fill="rgb(255, 255, 255)"></path><path d="M9.97428 12.5945C8.956 12.5945 8.0723 13.2928 7.8463 14.2739C7.81074 14.4291 7.79297 14.5843 7.79297 14.7444C7.79297 15.9308 8.77062 16.8919 9.97174 16.8919C11.1729 16.8919 12.1505 15.9283 12.1505 14.7444C12.1505 13.5606 11.1729 12.597 9.97174 12.597L9.97428 12.5945Z" fill="url(#paint3_radial_8306_8352)"></path></g><defs><radialGradient id="paint0_radial_8306_8352" cx="0" cy="0" r="1" gradientUnits="userSpaceOnUse" gradientTransform="translate(10.2119 0.971087) rotate(90) scale(22.7886 16.1846)" transform="matrix(0 22.7886 -16.1846 0 10.2119 0.971087)"><stop stop-color="rgb(253, 59, 10)"></stop><stop offset="0.12" stop-color="rgb(252, 67, 12)"></stop><stop offset="0.31" stop-color="rgb(252, 90, 18)"></stop><stop offset="0.54" stop-color="rgb(251, 127, 27)"></stop><stop offset="0.82" stop-color="rgb(250, 179, 41)"></stop><stop offset="0.84" stop-color="rgb(250, 184, 50)"></stop><stop offset="0.89" stop-color="rgb(250, 200, 76)"></stop><stop offset="0.95" stop-color="rgb(250, 225, 118)"></stop><stop offset="1" stop-color="rgb(250, 247, 155)"></stop></radialGradient><radialGradient id="paint1_radial_8306_8352" cx="0" cy="0" r="1" gradientUnits="userSpaceOnUse" gradientTransform="translate(10.2033 23.0915) rotate(180) scale(20.6501 20.3533)" transform="matrix(-20.6501 0 0 -20.3533 10.2033 23.0915)"><stop stop-color="rgb(253, 59, 10)"></stop><stop offset="0.12" stop-color="rgb(252, 67, 12)"></stop><stop offset="0.31" stop-color="rgb(252, 90, 18)"></stop><stop offset="0.54" stop-color="rgb(251, 127, 27)"></stop><stop offset="0.82" stop-color="rgb(250, 179, 41)"></stop><stop offset="0.84" stop-color="rgb(250, 184, 50)"></stop><stop offset="0.89" stop-color="rgb(250, 200, 76)"></stop><stop offset="0.95" stop-color="rgb(250, 225, 118)"></stop><stop offset="1" stop-color="rgb(250, 247, 155)"></stop></radialGradient><radialGradient id="paint2_radial_8306_8352" cx="0" cy="0" r="1" gradientUnits="userSpaceOnUse" gradientTransform="translate(10.2119 0.971087) rotate(90) scale(22.7886 16.1846)" transform="matrix(0 22.7886 -16.1846 0 10.2119 0.971087)"><stop stop-color="rgb(253, 59, 10)"></stop><stop offset="0.12" stop-color="rgb(252, 67, 12)"></stop><stop offset="0.31" stop-color="rgb(252, 90, 18)"></stop><stop offset="0.54" stop-color="rgb(251, 127, 27)"></stop><stop offset="0.82" stop-color="rgb(250, 179, 41)"></stop><stop offset="0.84" stop-color="rgb(250, 184, 50)"></stop><stop offset="0.89" stop-color="rgb(250, 200, 76)"></stop><stop offset="0.95" stop-color="rgb(250, 225, 118)"></stop><stop offset="1" stop-color="rgb(250, 247, 155)"></stop></radialGradient><radialGradient id="paint3_radial_8306_8352" cx="0" cy="0" r="1" gradientUnits="userSpaceOnUse" gradientTransform="translate(9.99459 12.642) scale(4.20772 4.14725)" transform="matrix(4.20772 0 0 4.14725 9.99459 12.642)"><stop stop-color="rgb(253, 59, 10)"></stop><stop offset="0.12" stop-color="rgb(252, 67, 12)"></stop><stop offset="0.31" stop-color="rgb(252, 90, 18)"></stop><stop offset="0.54" stop-color="rgb(251, 127, 27)"></stop><stop offset="0.82" stop-color="rgb(250, 179, 41)"></stop><stop offset="0.84" stop-color="rgb(250, 184, 50)"></stop><stop offset="0.89" stop-color="rgb(250, 200, 76)"></stop><stop offset="0.95" stop-color="rgb(250, 225, 118)"></stop><stop offset="1" stop-color="rgb(250, 247, 155)"></stop></radialGradient><clipPath id="clip0_8306_8352"><rect width="20" height="24" fill="rgb(255, 255, 255)"></rect></clipPath></defs></svg>