<svg width="136" height="108" viewBox="0 0 136 108" fill="none" xmlns="http://www.w3.org/2000/svg">
<g clip-path="url(#clip0_13935_140989)">
<g clip-path="url(#clip1_13935_140989)">
<path opacity="0.54" d="M95.7859 96.262C101.305 94.311 107.28 93.467 113.191 93.8597C117.088 94.1194 120.984 94.9634 124.362 96.9143C127.674 98.9271 130.399 102.177 131.051 106.01C131.765 110.364 129.685 114.912 126.246 117.642C114.103 127.387 97.025 115.171 91.3086 103.738L95.789 96.2681L95.7859 96.262Z" fill="url(#paint0_linear_13935_140989)"/>
<path opacity="0.54" d="M89.5391 90.6401C92.6877 83.9 97.2206 77.8278 102.835 72.8871C106.493 69.6407 110.748 66.8272 115.513 65.5596C120.278 64.2888 125.623 64.8206 129.683 67.6063C134.213 70.831 136.497 76.7333 135.906 82.283C133.913 101.857 107.689 106.399 92.3787 101.4L89.5391 90.6401Z" fill="url(#paint1_linear_13935_140989)"/>
<path opacity="0.54" d="M77.4662 94.6567C72.3693 92.8552 66.8561 92.0758 61.3999 92.4384C57.8033 92.6782 54.2067 93.4576 51.0893 95.2591C48.0318 97.1178 45.5161 100.118 44.9143 103.659C44.2555 107.678 46.175 111.878 49.3495 114.399C60.5585 123.398 76.3224 112.118 81.5989 101.56L77.4633 94.6624L77.4662 94.6567Z" fill="url(#paint2_linear_13935_140989)"/>
<path opacity="0.54" d="M83.2424 89.5988C80.3342 83.379 76.1476 77.7755 70.962 73.2163C67.583 70.2205 63.6532 67.6242 59.2524 66.4544C54.8517 65.2818 49.9144 65.7725 46.1644 68.3432C41.9806 71.319 39.8715 76.7655 40.4166 81.8869C42.2574 99.9498 66.4785 104.141 80.6196 99.5276L83.2424 89.5988Z" fill="url(#paint3_linear_13935_140989)"/>
<path fill-rule="evenodd" clip-rule="evenodd" d="M20.2863 69.821C22.9282 64.2249 37.9144 71.2834 43.4206 73.8774C44.2765 74.2825 44.9038 74.5762 45.219 74.6998C53.1724 77.0372 60.5697 85.8055 57.1862 90.6411C54.4578 94.5367 47.5889 98.7508 37.4262 89.4631C37.2593 89.3487 37.0894 89.2312 36.9132 89.1106C30.5078 84.7141 17.4807 75.7727 20.2894 69.8241L20.2863 69.821ZM37.4262 89.46C37.5621 89.4013 37.7259 89.2869 37.9144 89.1261L37.4262 89.46Z" fill="#FBC000"/>
<path d="M19.9351 70.9844C19.0916 77.0566 31.6181 85.4632 37.4241 89.4516L37.8999 89.127C37.7176 89.2785 37.5569 89.3928 37.4241 89.4516C47.5899 98.7393 54.4588 94.5283 57.1873 90.6296C57.4406 90.2647 57.6291 89.8783 57.7651 89.4763C50.9827 96.1391 22.4101 77.1061 19.9351 70.9875V70.9844Z" fill="#F4981A"/>
<path d="M49.0587 79.701C49.105 78.4612 49.173 77.2338 49.2657 76.0156L110.536 78.2726C110.536 79.4939 110.517 80.7244 110.471 81.9611C109.371 111.877 94.7309 135.622 77.7733 134.998C60.8158 134.373 47.9617 109.614 49.0617 79.6979L49.0587 79.701Z" fill="#FBC000"/>
<path d="M51.2191 103.673C72.3882 108.131 84.5316 108.252 106.513 105.71C108.139 100.009 108.855 96.7192 109.718 90.6562C85.7768 93.7357 72.4129 93.1668 49.0469 88.3281C49.5011 94.2674 49.9275 97.9188 51.2191 103.673Z" fill="#202020"/>
<g style="mix-blend-mode:color-burn">
<path d="M100.14 77.8828L110.519 78.2662C110.519 79.4874 110.498 80.718 110.454 81.9547C109.354 111.871 94.7914 135.619 77.9297 134.997C96.9451 120.429 97.4951 107.313 100.143 77.8828H100.14Z" fill="#F18508"/>
</g>
<path d="M110.519 78.2293C110.571 76.8215 96.9212 75.1755 80.0313 74.5529C63.1414 73.9302 49.4074 74.5667 49.3556 75.9744C49.3037 77.3822 62.9537 79.0282 79.8436 79.6508C96.7335 80.2735 110.467 79.637 110.519 78.2293Z" fill="#F4981A"/>
<g clip-path="url(#clip2_13935_140989)">
<path d="M72.0671 84.6719L68.6452 93.6752C68.4575 94.1719 68.49 94.9675 68.721 95.4463L73.0418 104.388C73.2728 104.867 73.7204 104.91 74.038 104.482L80.0662 96.3823C80.3838 95.9575 80.5607 95.1799 80.4632 94.6579L78.7017 85.417" fill="white"/>
<path fill-rule="evenodd" clip-rule="evenodd" d="M78.3369 89.125C78.4668 89.8378 78.5932 90.5218 78.7303 91.2489C78.1961 91.4469 77.6763 91.6449 77.1565 91.8357C74.7778 92.7069 72.4026 93.5816 70.0238 94.4456C69.9011 94.4924 69.6629 94.5104 69.6268 94.4528C69.5582 94.3412 69.5473 94.1432 69.5979 94.0172C69.8361 93.4161 70.0924 92.8185 70.3631 92.2317C70.4245 92.0985 70.558 91.9545 70.6916 91.9077C73.1859 90.9825 75.6838 90.0682 78.1817 89.1538C78.2142 89.143 78.2539 89.1394 78.3405 89.125H78.3369Z" fill="#1479F4"/>
<path fill-rule="evenodd" clip-rule="evenodd" d="M78.9545 92.5C79.0917 93.2488 79.2181 93.9328 79.3516 94.6635C76.8284 95.5887 74.0093 96.6579 71.4536 97.5938C71.4536 97.5938 70.3383 95.5347 70.4357 95.6247C73.2874 94.5807 76.0957 93.5476 78.9582 92.5H78.9545Z" fill="#1479F4"/>
<path fill-rule="evenodd" clip-rule="evenodd" d="M71.1289 90.413C71.4321 89.7074 71.6812 89.1135 71.9447 88.5267C71.9808 88.4475 72.0746 88.3683 72.1613 88.3359C74.0203 87.6519 75.8828 86.9751 77.7454 86.2984C77.7563 86.2948 77.7707 86.2984 77.8212 86.302C77.9115 86.7987 78.0053 87.3063 78.1064 87.8499C75.8034 88.6959 73.5185 89.5311 71.1289 90.4094V90.413Z" fill="#1479F4"/>
<path fill-rule="evenodd" clip-rule="evenodd" d="M72.6602 86.8238C73.2341 85.481 73.7575 84.2462 74.2953 83.0151C74.3314 82.9359 74.4903 82.8495 74.5805 82.8603C75.3927 82.9359 76.2012 83.0259 77.0098 83.1303C77.1109 83.1447 77.2553 83.2707 77.2769 83.3679C77.3924 83.8971 77.4791 84.437 77.5837 85.0166C75.9738 85.607 74.3675 86.1974 72.6602 86.8238Z" fill="#1479F4"/>
<path fill-rule="evenodd" clip-rule="evenodd" d="M78.2422 96.3906L73.7554 102.831L72.1094 98.5254C74.0514 97.8126 76.3435 97.089 78.2422 96.3906Z" fill="#1479F4"/>
<path fill-rule="evenodd" clip-rule="evenodd" d="M71.25 80.1919L72.0694 84.6702L78.7076 85.419L80.3211 81.4231L76.2855 76.2969" fill="#1479F4"/>
<path fill-rule="evenodd" clip-rule="evenodd" d="M68.4441 68.6719L65.2279 73.0169C64.7442 73.6757 64.5746 74.8349 64.8525 75.6016L67.2204 82.0814C67.4984 82.8482 68.242 83.0426 68.8665 82.5206L76.2843 76.3036L68.4441 68.6719Z" fill="white"/>
<path fill-rule="evenodd" clip-rule="evenodd" d="M85.5828 70.6052L87.7414 75.5586C88.0663 76.3038 87.9688 77.4737 87.5248 78.1577L83.7636 83.9463C83.3196 84.6303 82.5543 84.6555 82.0634 84.0075L76.2266 76.293L85.5792 70.6016L85.5828 70.6052Z" fill="white"/>
</g>
<path d="M47.9168 8.33594L45.6797 36.0569L47.8643 36.0167L48.5688 8.43178L47.9168 8.33903V8.33594Z" fill="white"/>
<path d="M47.8808 35.3048L48.5698 8.43098L48.3999 8.40625L47.8869 8.6876L47.8746 8.82982C48.0569 8.92258 48.3906 8.9535 48.4153 8.91639C48.3504 9.48837 47.1484 35.2027 47.1484 35.2027L47.8746 35.3079L47.8808 35.3048Z" fill="url(#paint4_linear_13935_140989)"/>
<path d="M46.6991 32.4297C39.0978 33.5273 35.7731 54.1247 45.9637 55.853C49.3904 43.86 46.6991 32.4297 46.6991 32.4297Z" fill="#202020"/>
<g opacity="0.8">
<path d="M42.3647 35.6297C39.5065 40.0076 40.3593 50.665 41.7004 53.2807C42.7139 54.604 44.1167 55.5408 45.9614 55.853C49.3881 43.86 46.6968 32.4297 46.6968 32.4297C45.0097 32.6708 43.5327 33.8797 42.3678 35.6297H42.3647Z" fill="#515355"/>
</g>
<path d="M46.1807 58.259C46.9531 60.5439 47.9481 62.3897 49.1192 63.5862C56.0097 70.6169 97.1582 80.087 109.657 67.7663C112.558 64.8847 117.604 53.2163 117.87 42.0179V42.0055C117.997 36.6042 117.011 31.3141 114.131 27.1712C105.13 14.2413 73.6841 7.57852 55.7193 18.409C43.8787 25.5449 42.4048 47.1101 46.1837 58.259H46.1807Z" fill="#FBC000"/>
<path d="M46.1828 58.2533C46.9553 60.5381 47.9502 62.3839 49.1213 63.5804C56.0118 70.6111 97.1604 80.0813 109.659 67.7605C112.561 64.879 117.606 53.2106 117.872 42.0122V41.9998C117.804 36.7345 116.754 31.6516 114.13 27.6014C112.644 25.3072 110.546 23.1987 108 21.3281C118.03 32.6904 110.873 57.8204 105.661 63.9947C100.445 70.1659 84.813 63.7659 71.5572 63.0672C59.6456 62.4365 49.971 62.2602 46.1797 58.2502L46.1828 58.2533Z" fill="#F4981A"/>
<path d="M122.651 9.90934L117 38.6877L119.293 38.9041L123.325 10.0825L122.655 9.90625L122.651 9.90934Z" fill="white"/>
<path d="M119.396 38.1541L123.323 10.0776L123.15 10.0312L122.582 10.2631L122.554 10.4084C122.733 10.529 123.079 10.6001 123.11 10.563C122.971 11.1536 118.648 37.9562 118.648 37.9562L119.396 38.1541Z" fill="url(#paint5_linear_13935_140989)"/>
<path d="M54.8972 25.1847C49.2489 27.6087 44.3173 52.1451 50.9391 57.4846C53 59.0861 61.1049 57.599 70.8073 58.7707C83.819 60.3445 98.5888 63.8722 101.391 62.3325C106.283 59.6364 111.22 36.2811 105.723 30.5675C100.226 24.8539 66.262 20.309 54.8972 25.1847Z" fill="#202020"/>
<path opacity="0.3" d="M104.361 29.7481C98.8644 24.0345 66.037 20.1945 54.6723 25.0733C53.4178 25.6113 52.1416 27.2035 50.9922 29.4142C54.6723 25.0733 61.4052 23.5274 79.0487 24.8507C94.6528 26.0225 100.87 28.8236 105.403 31.2785C105.109 30.6849 104.763 30.1655 104.361 29.7481Z" fill="url(#paint6_linear_13935_140989)"/>
<path d="M117.37 37.7766C112.871 39.409 109.655 59.9014 112.442 63.3209C115.522 64.0598 118.065 63.8094 119.502 62.2573C120.936 60.7052 127.051 50.255 122.614 40.7818C120.862 37.8446 118.64 37.622 117.373 37.7797L117.37 37.7766Z" fill="#202020"/>
<g opacity="0.8">
<path d="M121.042 38.8887C119.676 37.7509 118.279 37.6674 117.368 37.7787C112.869 39.4112 109.649 59.9035 112.439 63.3261C113.867 63.6693 115.177 63.793 116.314 63.6786C113.434 61.4432 116.536 40.7654 121.042 38.8856V38.8887Z" fill="#424446"/>
</g>
<path opacity="0.4" d="M121.04 38.8906C115.92 42.8017 119.041 51.7401 123.472 53.6941C124.452 49.851 124.68 45.2102 122.61 40.7828C122.113 39.9511 121.578 39.3358 121.04 38.8906Z" fill="url(#paint7_linear_13935_140989)"/>
<path d="M48.2694 8.8056C48.7677 8.8056 49.1717 8.4014 49.1717 7.9028C49.1717 7.4042 48.7677 7 48.2694 7C47.7711 7 47.3672 7.4042 47.3672 7.9028C47.3672 8.4014 47.7711 8.8056 48.2694 8.8056Z" fill="white"/>
<path opacity="0.34" d="M47.7038 7.21875C47.6266 7.36716 47.5987 7.55266 47.6482 7.75054C47.7656 8.22667 48.2044 8.51112 48.6771 8.42145C48.844 8.39363 48.9923 8.30706 49.0912 8.18648C48.9707 8.43691 48.7544 8.61933 48.4732 8.68735C47.9973 8.80483 47.5339 8.48947 47.4442 8.01643C47.4103 7.71344 47.506 7.43208 47.7007 7.21875H47.7038Z" fill="url(#paint8_linear_13935_140989)"/>
<path d="M123.117 10.5087C123.615 10.5087 124.019 10.1045 124.019 9.60593C124.019 9.10732 123.615 8.70312 123.117 8.70312C122.619 8.70312 122.215 9.10732 122.215 9.60593C122.215 10.1045 122.619 10.5087 123.117 10.5087Z" fill="white"/>
<path opacity="0.34" d="M122.551 8.92969C122.474 9.07809 122.446 9.2636 122.496 9.46147C122.613 9.93761 123.052 10.2221 123.525 10.1324C123.692 10.1046 123.84 10.018 123.939 9.89742C123.818 10.1479 123.602 10.3303 123.321 10.3983C122.845 10.5158 122.382 10.2004 122.292 9.72737C122.258 9.42437 122.354 9.14302 122.548 8.92969H122.551Z" fill="url(#paint9_linear_13935_140989)"/>
<path d="M53.1958 38.028L52.9776 40.3769C52.5412 45.0746 55.9935 49.2368 60.6883 49.6734L61.5375 49.7524C66.2324 50.189 70.3921 46.7347 70.8284 42.037L71.0466 39.6881C71.4829 34.9904 68.0307 30.8282 63.3359 30.3916L62.4867 30.3126C57.7918 29.876 53.6321 33.3303 53.1958 38.028Z" fill="white"/>
<path d="M54.2099 38.8366L54.0609 40.4406C53.7533 43.7526 56.1872 46.687 59.4973 46.9949L60.1403 47.0547C63.4503 47.3625 66.383 44.9271 66.6907 41.6151L66.8396 40.0112C67.1473 36.6992 64.7134 33.7647 61.4033 33.4569L60.7603 33.3971C57.4503 33.0892 54.5176 35.5246 54.2099 38.8366Z" fill="#202020"/>
<path d="M63.0402 42.7679L63.0039 43.1588C62.9154 44.111 63.6151 44.9546 64.5667 45.043L64.7974 45.0645C65.749 45.153 66.5921 44.4529 66.6805 43.5008L66.7168 43.1098C66.8053 42.1577 66.1056 41.3141 65.154 41.2256L64.9233 41.2041C63.9717 41.1156 63.1286 41.8158 63.0402 42.7679Z" fill="white"/>
<path d="M57.5648 39.1743L57.5085 39.7807C57.3722 41.248 58.4505 42.5481 59.9169 42.6844L60.203 42.711C61.6694 42.8474 62.9687 41.7685 63.105 40.3012L63.1613 39.6947C63.2976 38.2275 62.2193 36.9274 60.7529 36.7911L60.4668 36.7644C59.0004 36.6281 57.7011 37.707 57.5648 39.1743Z" fill="#8F8E8E"/>
<path d="M57.7472 39.1918L57.6908 39.7983C57.5639 41.1653 58.5684 42.3764 59.9346 42.5035L60.2207 42.5301C61.5869 42.6571 62.7973 41.652 62.9243 40.285L62.9806 39.6785C63.1076 38.3116 62.103 37.1004 60.7369 36.9734L60.4507 36.9468C59.0846 36.8197 57.8742 37.8249 57.7472 39.1918Z" stroke="white" stroke-width="0.279034"/>
<path d="M81.5473 41.8327L81.3292 44.1816C80.8928 48.8793 84.345 53.0414 89.0399 53.4781L89.889 53.557C94.5839 53.9937 98.7436 50.5394 99.18 45.8417L99.3982 43.4928C99.8345 38.7951 96.3823 34.6329 91.6874 34.1963L90.8383 34.1173C86.1434 33.6807 81.9837 37.135 81.5473 41.8327Z" fill="white"/>
<path d="M82.5615 42.6335L82.4125 44.2374C82.1049 47.5495 84.5388 50.4839 87.8488 50.7918L88.4918 50.8516C91.8019 51.1594 94.7346 48.724 95.0422 45.412L95.1912 43.8081C95.4988 40.4961 93.0649 37.5616 89.7549 37.2538L89.1119 37.194C85.8018 36.8861 82.8691 39.3215 82.5615 42.6335Z" fill="#202020"/>
<path d="M91.3918 46.5726L91.3554 46.9635C91.267 47.9157 91.9667 48.7592 92.9182 48.8477L93.149 48.8692C94.1005 48.9577 94.9436 48.2576 95.0321 47.3055L95.0684 46.9145C95.1568 45.9624 94.4571 45.1188 93.5056 45.0303L93.2748 45.0088C92.3233 44.9203 91.4802 45.6204 91.3918 46.5726Z" fill="white"/>
<path d="M85.9203 42.9712L85.864 43.5776C85.7277 45.0449 86.8059 46.3449 88.2723 46.4813L88.5585 46.5079C90.0249 46.6443 91.3241 45.5654 91.4604 44.0981L91.5168 43.4916C91.653 42.0243 90.5748 40.7243 89.1084 40.5879L88.8222 40.5613C87.3558 40.425 86.0566 41.5039 85.9203 42.9712Z" fill="#8F8E8E"/>
<path d="M86.0987 42.9887L86.0424 43.5952C85.9154 44.9622 86.92 46.1733 88.2861 46.3004L88.5723 46.327C89.9384 46.454 91.1488 45.4489 91.2758 44.0819L91.3321 43.4754C91.4591 42.1085 90.4546 40.8973 89.0884 40.7703L88.8023 40.7436C87.4361 40.6166 86.2257 41.6218 86.0987 42.9887Z" stroke="white" stroke-width="0.279034"/>
<g opacity="0.3">
<path d="M70.5227 40.8089C69.7039 37.8408 61.0799 35.2653 53.729 35.018C46.378 34.7706 44.9968 37.0926 46.585 40.8584C48.1733 44.6272 53.6054 50.9128 59.124 51.4694C64.6395 52.0259 71.9657 46.0371 70.5227 40.8089Z" fill="#B8C1E0"/>
</g>
<g opacity="0.3">
<path d="M81.734 41.9453C79.2806 46.7839 85.2658 54.1084 90.7813 54.6649C96.3 55.2214 102.875 50.1416 105.18 46.7654C107.485 43.3891 106.596 40.8415 99.3404 39.6172C92.0853 38.3959 83.1214 39.1998 81.731 41.9453H81.734Z" fill="#B8C1E0"/>
</g>
<g opacity="0.65">
<path d="M68.0682 40.7682C67.3637 38.2113 59.9356 35.9945 53.6012 35.7812C47.27 35.5678 46.0803 37.5682 47.4492 40.8115C47.4492 40.8115 47.0598 36.6901 57.0032 37.8001C65.7663 38.7802 68.0682 40.7682 68.0682 40.7682Z" fill="white"/>
</g>
<g opacity="0.65">
<path d="M104.811 43.0596C104.159 41.8538 102.302 40.9201 98.798 40.3296C92.2536 39.2258 84.1641 39.9524 82.9096 42.4289C82.2638 43.6965 82.2669 45.1558 82.7119 46.5997C82.7119 46.5997 82.4863 42.398 91.2957 41.7549C100.102 41.1118 104.814 43.0565 104.814 43.0565L104.811 43.0596Z" fill="white"/>
</g>
<path d="M110.233 38.8461C107.795 38.1288 97.7593 35.9243 88.437 37.124C79.5812 38.2617 79.8933 39.7922 76.3275 39.5139C72.7772 39.0749 73.389 37.6403 64.9381 34.7587C56.0391 31.7257 45.7682 31.8865 43.2344 32.1029C41.0344 32.2915 40.3577 34.1682 41.6462 36.9663C42.9347 39.7643 50.0879 51.3183 56.4593 53.529C62.8277 55.7396 68.4699 51.1266 70.4289 48.8109C72.3693 46.5168 73.9761 42.9643 75.966 43.0911C77.9436 43.3601 78.8118 47.1661 80.2548 49.8003C81.7133 52.4592 86.3235 58.1048 93.007 57.2082C99.6874 56.3116 109 46.4148 110.82 43.929C112.64 41.4432 112.35 39.4675 110.233 38.8461ZM59.1228 51.4698C53.6073 50.9133 48.1721 44.6277 46.5839 40.8588C44.9957 37.0899 46.3769 34.7711 53.7278 35.0185C61.0788 35.2658 69.7027 37.8412 70.5216 40.8094C71.9615 46.0376 64.6414 52.0264 59.1228 51.4698ZM105.209 46.761C102.904 50.1373 96.3255 55.214 90.81 54.6606C85.2914 54.104 79.3093 46.7796 81.7627 41.941C83.1563 39.1955 92.1202 38.3916 99.3722 39.6128C106.627 40.8341 107.517 43.3848 105.212 46.761H105.209Z" fill="black"/>
<path d="M51.9715 32.4508C50.9271 32.2344 47.0709 32.0087 44.5835 32.1571C42.0405 32.3086 41.4163 32.9084 41.4102 34.0864C41.4102 34.0864 42.3279 32.6363 46.1285 32.423C49.0114 32.2622 51.9715 32.4477 51.9715 32.4477V32.4508Z" fill="white"/>
<path d="M75.1412 56.3101C72.7156 56.0225 70.874 53.9696 70.3703 52.0372C70.2189 51.4622 70.6515 51.02 71.217 50.9335C71.4549 50.8964 71.7021 50.952 71.9215 51.0479C74.6808 52.2629 76.5471 52.433 79.5165 51.9321C79.7823 51.8888 80.0634 51.9043 80.3045 52.0249C80.7803 52.2598 81.046 52.7607 80.7865 53.2554C79.8502 55.0208 77.573 56.5976 75.1412 56.3101Z" fill="white"/>
<path d="M25.3644 74.8126L26.8228 73.9902C26.9866 73.8974 27.0669 73.7274 26.9959 73.6099L1.28149 30.3559C1.21351 30.2415 1.03121 30.226 0.870529 30.3157C0.709853 30.4053 0.629515 30.5723 0.694403 30.6898L24.9503 74.7693C25.0152 74.8868 25.2006 74.9054 25.3644 74.8157V74.8126Z" fill="#1FC2FB"/>
<path d="M21.3008 76.3629C23.2134 78.4653 25.8646 80.543 28.6208 82.4382C30.8857 80.8954 32.131 78.4251 31.9147 74.6222C31.5964 71.7623 29.6127 68.5994 26.3003 66.5341C25.3239 66.3548 25.4011 66.293 24.4989 66.2188L21.3039 76.3598L21.3008 76.3629Z" fill="#F4981A"/>
<path d="M28.1138 79.7896C30.7813 78.3572 31.2057 73.9553 29.0616 69.9576C26.9176 65.9599 23.017 63.8803 20.3495 65.3127C17.682 66.7451 17.2576 71.147 19.4017 75.1447C21.5457 79.1424 25.4463 81.222 28.1138 79.7896Z" fill="#FBC000"/>
<path d="M19.4049 75.1431C21.1538 78.4049 24.0676 80.3837 26.5334 80.2322C19.1454 75.2173 19.3555 68.74 20.0662 65.4844C17.656 67.0705 17.344 71.2969 19.4049 75.1431Z" fill="#F4981A"/>
<path d="M19.6105 63.8701L17.5742 60.2188" stroke="white" stroke-width="0.468966" stroke-linecap="round" stroke-linejoin="round"/>
<path d="M17.0432 59.1982L16.3789 58.0078" stroke="white" stroke-width="0.468966" stroke-linecap="round" stroke-linejoin="round"/>
<path d="M0.812651 30.97C1.26146 30.97 1.6253 30.606 1.6253 30.1569C1.6253 29.7078 1.26146 29.3438 0.812651 29.3438C0.363836 29.3438 0 29.7078 0 30.1569C0 30.606 0.363836 30.97 0.812651 30.97Z" fill="#1FC2FB"/>
<path d="M53.237 98.5096C53.237 98.5096 49.1861 89.5094 45.0703 88.4922L58.3385 112.574L67.3981 118.498L53.237 98.5096Z" fill="white"/>
<path d="M53.2398 98.5117C53.2398 98.5117 46.9209 90.0866 42.5703 88.5469L42.8206 89.6568L53.2398 98.5117Z" fill="#E2ECF3"/>
<path d="M53.2385 98.5088C53.2385 98.5088 45.5446 90.5165 41.7656 89.4375L40.7305 90.3496L50.7696 97.8131C50.7696 97.8131 52.2003 100.113 53.5722 99.4518L54.4312 99.1581L53.6031 98.515L53.2354 98.5088H53.2385Z" fill="white"/>
<path d="M64.9694 117.372L63.9837 116.773L57.0375 112.537L39.6289 90.2668L39.941 89.7969L49.4796 96.4937L50.8577 97.4645L64.3607 116.516L64.9694 117.372Z" fill="#75B500"/>
<path d="M63.9837 116.771L61.6632 115.359L57.0375 112.536L40.8865 91.8765L39.6289 90.2656L50.0976 97.621L50.7125 98.0538L63.3132 115.828L63.9837 116.771Z" fill="#8EE000"/>
<path d="M62.1399 115.474L57.5143 112.651L41.3633 91.9922L48.9799 97.3441L49.5948 97.7769L62.1399 115.474Z" fill="#7DC700"/>
<path d="M67.2171 87.7354L85.7041 111.153L67.3994 118.499L53.2383 98.5102C53.2383 98.5102 61.8128 86.6409 67.2171 87.7354Z" fill="white"/>
<path d="M71.7365 89.9695L87.8875 111.695L67.4013 118.5L53.543 98.9388C53.543 98.9388 63.2577 88.0217 71.7365 89.9664V89.9695Z" fill="#E2ECF3"/>
<path d="M74.162 91.3465L89.1327 111.91L67.4013 118.495L53.543 98.9338C53.543 98.9338 67.0861 90.0727 74.1651 91.3434L74.162 91.3465Z" fill="white"/>
<path d="M87.263 115.227L87.1178 115.817L69.7277 117.793C69.7277 117.793 69.6072 117.929 69.3785 118.087C68.7204 118.55 67.1538 119.212 64.9661 117.366L51.1758 97.9126C51.8896 98.8278 52.7331 99.2205 53.6848 99.137C54.4418 99.0751 55.2699 98.7041 56.1691 98.0549L73.1791 93.5625L85.7675 112.926L87.263 115.227Z" fill="#FF9FA8"/>
<path d="M87.263 115.227L87.1178 115.817L69.7277 117.793C69.7277 117.793 69.6072 117.929 69.3785 118.087C68.7204 118.55 67.1538 119.212 64.9661 117.366L51.1758 97.9126C51.8896 98.8278 52.7331 99.2205 53.6848 99.137C54.4418 99.0751 55.2699 98.7041 56.1691 98.0549L73.1791 93.5625L85.7675 112.926L87.263 115.227Z" fill="#75B500"/>
<path d="M56.0285 98.6422L69.584 118.383C69.584 118.383 67.7671 120.439 64.8224 117.953L51.0352 98.5C52.3175 100.142 54.0015 100.114 56.0316 98.6422H56.0285Z" fill="#FF9FA8"/>
<path d="M69.5855 118.386C69.5855 118.386 69.3568 118.646 68.9335 118.863C68.64 119.02 68.2537 119.156 67.7841 119.184C67.0116 119.221 66.0074 118.955 64.827 117.957L51.4445 99.0844L51.3086 98.8865C51.3302 98.8927 51.3549 98.8865 51.3766 98.8865C51.4291 98.9483 51.4878 99.0009 51.5434 99.0442C52.3375 99.7553 53.2676 99.9099 54.312 99.5698C54.6457 99.4585 54.9949 99.2977 55.3533 99.0906C55.5758 98.9638 55.7952 98.8154 56.0269 98.6484L69.5824 118.389L69.5855 118.386Z" fill="#8EE000"/>
<path d="M68.9296 118.867C68.6361 119.024 68.2498 119.16 67.7802 119.188C67.0077 119.225 66.0035 118.959 64.8231 117.961L51.4406 99.0885L51.3047 98.8906C51.3263 98.8968 51.351 98.8906 51.3727 98.8906C51.4252 98.9525 51.4839 99.005 51.5395 99.0483C52.3336 99.7594 53.2637 99.914 54.3081 99.5739C54.6418 99.4626 54.991 99.3018 55.3494 99.0947L68.9265 118.87L68.9296 118.867Z" fill="#7DC700"/>
<path d="M67.7809 119.187C67.0085 119.224 66.0042 118.958 64.8239 117.959L51.4414 99.0871C51.4723 99.0778 51.5063 99.0654 51.5434 99.0469C52.3375 99.758 53.2676 99.9126 54.3119 99.5725L67.7809 119.19V119.187Z" fill="#8EE000"/>
<path d="M87.1174 115.817L69.7273 117.793C69.7273 117.793 69.6068 117.929 69.3781 118.087L69.2669 117.926L56.0234 98.6424L56.5858 98.494L57.1296 98.3518L73.0304 94.1562L85.3221 113.062L86.2924 114.553L86.694 115.174L87.1143 115.817H87.1174Z" fill="#8EE000"/>
<path d="M85.623 115.113L69.3638 116.962C69.3638 116.962 69.2495 117.091 69.027 117.246L68.9189 117.088L56.4727 98.9643L57.001 98.8282L72.395 94.7656L84.2943 113.069L85.2337 114.513L85.623 115.116V115.113Z" fill="#7DC700"/>
<path d="M84.0349 114.302L69.1322 115.996C69.1322 115.996 69.021 116.12 68.8109 116.265L68.7089 116.117L57.2422 99.418L71.8514 95.5625L83.1419 112.932L84.0318 114.302H84.0349Z" fill="#7DC700"/>
<path fill-rule="evenodd" clip-rule="evenodd" d="M69.6804 106.653C68.2992 100.859 83.8014 97.1423 89.4961 95.7758C90.3829 95.5624 91.0318 95.4078 91.3408 95.3089C98.7195 92.2759 109.547 94.4123 109.911 100.08C110.205 104.649 107.578 111.946 94.3597 111.089C94.165 111.105 93.9672 111.12 93.7602 111.133C86.3073 111.686 71.1481 112.808 69.6804 106.653ZM94.3597 111.086C94.4276 110.96 94.4833 110.777 94.5265 110.542L94.3597 111.086Z" fill="#FBC000"/>
<path d="M70.1211 107.742C73.1369 112.81 87.6008 111.582 94.3554 111.084L94.5192 110.556C94.4759 110.778 94.4234 110.964 94.3554 111.084C107.574 111.944 110.201 104.644 109.907 100.074C109.879 99.6478 109.786 99.2428 109.647 98.8594C108.56 107.946 75.6582 110.846 70.1211 107.742Z" fill="#F4981A"/>
</g>
<path d="M24.5456 29.9454C20.801 31.0359 19.8934 31.919 18.7728 35.5628C17.6522 31.919 16.7446 31.0359 13 29.9454C16.7446 28.855 17.6522 27.9719 18.7728 24.3281C19.8934 27.9719 20.801 28.855 24.5456 29.9454Z" fill="white"/>
<path d="M17.9422 16.0285C11.7989 17.8158 10.3079 19.2667 8.47109 25.2445C6.63429 19.2667 5.14324 17.8158 -1 16.0285C5.14324 14.2412 6.63429 12.7903 8.47109 6.8125C10.3079 12.7903 11.7989 14.2412 17.9422 16.0285Z" fill="white"/>
</g>
<defs>
<linearGradient id="paint0_linear_13935_140989" x1="136.972" y1="102.47" x2="107.662" y2="108.326" gradientUnits="userSpaceOnUse">
<stop stop-color="#ECF4FF"/>
<stop offset="1" stop-color="#1479F4"/>
</linearGradient>
<linearGradient id="paint1_linear_13935_140989" x1="129.192" y1="67.5507" x2="103.215" y2="99.4982" gradientUnits="userSpaceOnUse">
<stop stop-color="#ECF4FF"/>
<stop offset="1" stop-color="#1479F4"/>
</linearGradient>
<linearGradient id="paint2_linear_13935_140989" x1="39.4467" y1="100.39" x2="66.5016" y2="105.792" gradientUnits="userSpaceOnUse">
<stop stop-color="#ECF4FF"/>
<stop offset="1" stop-color="#1479F4"/>
</linearGradient>
<linearGradient id="paint3_linear_13935_140989" x1="46.6182" y1="68.2918" x2="70.5857" y2="97.7938" gradientUnits="userSpaceOnUse">
<stop stop-color="#ECF4FF"/>
<stop offset="1" stop-color="#1479F4"/>
</linearGradient>
<linearGradient id="paint4_linear_13935_140989" x1="49.4853" y1="15.7119" x2="44.6154" y2="34.664" gradientUnits="userSpaceOnUse">
<stop stop-color="#A8ACAF"/>
<stop offset="1" stop-color="#A8ACAF" stop-opacity="0"/>
</linearGradient>
<linearGradient id="paint5_linear_13935_140989" x1="123.416" y1="17.8212" x2="116.048" y2="37.0917" gradientUnits="userSpaceOnUse">
<stop stop-color="#A8ACAF"/>
<stop offset="1" stop-color="#A8ACAF" stop-opacity="0"/>
</linearGradient>
<linearGradient id="paint6_linear_13935_140989" x1="60.2121" y1="25.9432" x2="96.3466" y2="28.6833" gradientUnits="userSpaceOnUse">
<stop stop-color="white"/>
<stop offset="1" stop-color="white" stop-opacity="0"/>
</linearGradient>
<linearGradient id="paint7_linear_13935_140989" x1="121.614" y1="42.7938" x2="120.5" y2="55.6464" gradientUnits="userSpaceOnUse">
<stop stop-color="#222C3B"/>
<stop offset="1" stop-color="#222C3B" stop-opacity="0"/>
</linearGradient>
<linearGradient id="paint8_linear_13935_140989" x1="48.1531" y1="8.59391" x2="48.2896" y2="7.57176" gradientUnits="userSpaceOnUse">
<stop stop-color="#AAAEB1"/>
<stop offset="1" stop-color="#AAAEB1" stop-opacity="0"/>
</linearGradient>
<linearGradient id="paint9_linear_13935_140989" x1="123" y1="10.3054" x2="123.137" y2="9.28322" gradientUnits="userSpaceOnUse">
<stop stop-color="#AAAEB1"/>
<stop offset="1" stop-color="#AAAEB1" stop-opacity="0"/>
</linearGradient>
<clipPath id="clip0_13935_140989">
<rect width="136" height="108" fill="white"/>
</clipPath>
<clipPath id="clip1_13935_140989">
<rect width="136" height="133.89" fill="white" transform="translate(0 7)"/>
</clipPath>
<clipPath id="clip2_13935_140989">
<rect width="23.2138" height="36.1103" fill="white" transform="translate(64.7188 68.6719)"/>
</clipPath>
</defs>
</svg>
