<svg data-v-01bac759="" width="20px" height="20px" viewBox="0 0 20 20" fill="none" xmlns="http://www.w3.org/2000/svg" class="h2d-bce59971" font-family="Inter, sans-serif"><path opacity="0.4" d="M15.0013 2.5H10.0013C8.16035 2.5 6.66797 3.99238 6.66797 5.83333V14.1667C6.66797 16.0076 8.16035 17.5 10.0013 17.5H15.0013C16.8423 17.5 18.3346 16.0076 18.3346 14.1667V5.83333C18.3346 3.99238 16.8423 2.5 15.0013 2.5Z" fill="rgb(226, 13, 44)"></path><path opacity="0.4" d="M1.66797 3.75C1.66797 3.05964 2.22761 2.5 2.91797 2.5C3.60832 2.5 4.16797 3.05964 4.16797 3.75V14.5C4.16797 15.3655 3.88726 16.2076 3.36797 16.9L2.91797 17.5L2.46797 16.9C1.94868 16.2076 1.66797 15.3655 1.66797 14.5V3.75Z" fill="rgb(226, 13, 44)"></path><path d="M4.16797 5.83333H1.66797V3.75C1.66797 3.05964 2.22761 2.5 2.91797 2.5C3.60832 2.5 4.16797 3.05964 4.16797 3.75V5.83333Z" fill="rgb(226, 13, 44)"></path><path fill-rule="evenodd" clip-rule="evenodd" d="M9.375 5.83203C9.375 5.48685 9.65482 5.20703 10 5.20703H15C15.3452 5.20703 15.625 5.48685 15.625 5.83203C15.625 6.17721 15.3452 6.45703 15 6.45703H10C9.65482 6.45703 9.375 6.17721 9.375 5.83203Z" fill="rgb(226, 13, 44)"></path><path fill-rule="evenodd" clip-rule="evenodd" d="M9.375 9.16797C9.375 8.82279 9.65482 8.54297 10 8.54297H15C15.3452 8.54297 15.625 8.82279 15.625 9.16797C15.625 9.51315 15.3452 9.79297 15 9.79297H10C9.65482 9.79297 9.375 9.51315 9.375 9.16797Z" fill="rgb(226, 13, 44)"></path><path fill-rule="evenodd" clip-rule="evenodd" d="M9.375 12.5C9.375 12.1548 9.65482 11.875 10 11.875H12.5C12.8452 11.875 13.125 12.1548 13.125 12.5C13.125 12.8452 12.8452 13.125 12.5 13.125H10C9.65482 13.125 9.375 12.8452 9.375 12.5Z" fill="rgb(226, 13, 44)"></path><path fill-rule="evenodd" clip-rule="evenodd" d="M18.7436 13.6976C19.0034 13.9249 19.0297 14.3198 18.8024 14.5795L16.4108 17.3128C15.8969 17.9001 15.0117 17.9788 14.4023 17.4912L12.9416 16.3227C12.6721 16.1071 12.6284 15.7137 12.844 15.4442C13.0596 15.1747 13.453 15.131 13.7225 15.3466L15.1832 16.5151C15.2702 16.5848 15.3967 16.5736 15.4701 16.4897L17.8617 13.7564C18.089 13.4966 18.4838 13.4703 18.7436 13.6976Z" fill="rgb(226, 13, 44)"></path></svg>