<svg data-v-01bac759="" width="20px" height="20px" viewBox="0 0 20 20" fill="none" xmlns="http://www.w3.org/2000/svg" class="h2d-4c30298f" font-family="Inter, sans-serif"><path d="M4.16672 4.44448C4.36116 4.44448 4.4908 4.31485 4.4908 4.1204V2.82408C4.4908 2.62963 4.36116 2.5 4.16672 2.5H2.22224C1.6713 2.5 1.25 3.01853 1.25 3.63428V6.93989C1.25 8.43066 2.25465 9.62975 3.51856 9.62975H4.16672C4.36116 9.62975 4.4908 9.50012 4.4908 9.30567V8.00935C4.4908 7.8149 4.36116 7.68527 4.16672 7.68527H3.84264C3.55096 7.68527 3.19448 7.23156 3.19448 6.55099V4.44448H4.16672Z" fill="rgb(255, 184, 0)"></path><path d="M17.7764 2.5H15.8319C15.6374 2.5 15.5078 2.62963 15.5078 2.82408V4.1204C15.5078 4.31485 15.6374 4.44448 15.8319 4.44448H16.8041V6.55099C16.8041 7.23156 16.4476 7.68527 16.156 7.68527H15.8319C15.6374 7.68527 15.5078 7.8149 15.5078 8.00935V9.30567C15.5078 9.50012 15.6374 9.62975 15.8319 9.62975H16.4801C17.744 9.62975 18.7486 8.43066 18.7486 6.93989V3.63428C18.7486 3.01853 18.3273 2.5 17.7764 2.5Z" fill="rgb(255, 184, 0)"></path><path d="M11.6559 12.8333C11.6145 12.625 11.4489 12.5 11.2419 12.5H8.75814C8.55116 12.5 8.38557 12.625 8.34417 12.8333L7.51624 17.0001C7.47484 17.1251 7.51624 17.2501 7.59903 17.3334C7.68183 17.4167 7.80602 17.5001 7.93021 17.5001H12.0699C12.1941 17.5001 12.3183 17.4584 12.4011 17.3334C12.4838 17.2501 12.5252 17.1251 12.4838 17.0001L11.6559 12.8333Z" fill="rgb(255, 184, 0)"></path><path d="M15.9213 1.25H4.07895C3.88158 1.25 3.75 1.39286 3.75 1.60715V9.10727C3.75 11.6787 5.65793 13.7502 8.02639 13.7502H11.9738C14.3423 13.7502 16.2502 11.6787 16.2502 9.10727V1.60715C16.2502 1.39286 16.1186 1.25 15.9213 1.25Z" fill="rgb(255, 220, 82)"></path><path d="M9.50824 5.31786C9.70941 4.89405 10.2907 4.89405 10.4918 5.31786L10.8395 6.05031C10.9194 6.21861 11.0738 6.33526 11.2525 6.36224L12.0299 6.4797C12.4798 6.54766 12.6594 7.12242 12.3339 7.45231L11.7713 8.02245C11.642 8.15345 11.5831 8.34219 11.6136 8.52716L11.7464 9.33221C11.8232 9.79802 11.353 10.1532 10.9506 9.93332L10.2553 9.55323C10.0955 9.46589 9.9046 9.46589 9.74483 9.55323L9.04947 9.93332C8.64712 10.1532 8.17687 9.79802 8.25371 9.33221L8.38651 8.52716C8.41703 8.34219 8.35804 8.15345 8.22878 8.02245L7.66622 7.45231C7.34071 7.12242 7.52033 6.54766 7.97017 6.4797L8.74761 6.36224C8.92625 6.33526 9.08067 6.21861 9.16055 6.05031L9.50824 5.31786Z" fill="rgb(255, 255, 255)"></path><path d="M13.5296 16.25H6.47061C5.64707 16.25 5 16.75 5 17.3864V18.5228C5 18.6591 5.11765 18.75 5.29412 18.75H14.706C14.8825 18.75 15.0002 18.6591 15.0002 18.5228V17.3864C15.0002 16.75 14.3531 16.25 13.5296 16.25Z" fill="rgb(255, 220, 82)"></path></svg>